<svg width="24" height="24" viewBox="0 0 24 24" fill="none" xmlns="http://www.w3.org/2000/svg">
<path d="M14.8572 16V18.2857C14.8572 18.5888 14.7368 18.8795 14.5225 19.0938C14.3082 19.3081 14.0175 19.4286 13.7144 19.4286H5.71439C5.41128 19.4286 5.1206 19.3081 4.90627 19.0938C4.69194 18.8795 4.57153 18.5888 4.57153 18.2857V5.71429C4.57153 5.41118 4.69194 5.12049 4.90627 4.90616C5.1206 4.69184 5.41128 4.57143 5.71439 4.57143H13.7144C14.0175 4.57143 14.3082 4.69184 14.5225 4.90616C14.7368 5.12049 14.8572 5.41118 14.8572 5.71429V8M11.4287 12H19.4287M19.4287 12L17.143 9.71429M19.4287 12L17.143 14.2857" stroke="#5C5F6A" stroke-width="1.43" stroke-linecap="round" stroke-linejoin="round"/>
</svg>
