<svg xmlns="http://www.w3.org/2000/svg" width="16" height="26" fill="none"><path fill="#0E1422" d="M12.477 4.348 6.204.555A3.748 3.748 0 0 0 4.254 0C2.208 0 .333 1.712.333 4.105v14.202l12.143-7.34c2.431-1.473 2.431-5.147 0-6.619Zm-8.629 7.1v-7.58l6.268 3.788-6.268 3.792Z"/><path fill="#0E1422" d="M15.849 25.984c0 .043-11.858-.018-11.858-.018l-1.048-.124c-1.696-.198-2.999-1.719-2.941-3.508 0-.043.004-.082.006-.124a3.908 3.908 0 0 1 .778-2.122c.186-.242.415-.446.673-.6l9.019-5.416c1.863-1.119 3.415-1.51 4.222-3.538a5.625 5.625 0 0 0 .376-2.396l-.032-.552.921 5.334c.118.906-.064 1.833-.544 2.597a3.547 3.547 0 0 1-1.126 1.13L3.829 21.895a.318.318 0 0 0-.03.02c-.286.215-.11.693.241.672l8.711.054c1.692-.099 3.101 1.57 3.098 3.344Z"/></svg>