<svg xmlns="http://www.w3.org/2000/svg" width="24" height="24" fill="none"><path fill="#FBBC05" fill-rule="evenodd" d="M7.448 12c0-.52.086-1.018.24-1.485L4.992 8.456A7.996 7.996 0 0 0 4.171 12c0 1.274.295 2.475.82 3.541l2.695-2.062A4.732 4.732 0 0 1 7.448 12Z" clip-rule="evenodd"/><path fill="#EA4335" fill-rule="evenodd" d="M12.182 7.273c1.129 0 2.149.4 2.95 1.054L17.462 6c-1.42-1.236-3.24-2-5.28-2a7.987 7.987 0 0 0-7.19 4.456l2.696 2.059a4.721 4.721 0 0 1 4.494-3.242Z" clip-rule="evenodd"/><path fill="#34A853" fill-rule="evenodd" d="M12.182 16.727a4.721 4.721 0 0 1-4.494-3.242l-2.696 2.059A7.987 7.987 0 0 0 12.182 20c1.954 0 3.82-.694 5.22-1.994l-2.56-1.978c-.722.455-1.63.7-2.66.7Z" clip-rule="evenodd"/><path fill="#4285F4" fill-rule="evenodd" d="M19.83 12c0-.473-.074-.982-.183-1.454h-7.465v3.09h4.297c-.215 1.054-.8 1.864-1.636 2.392l2.559 1.978c1.47-1.365 2.427-3.398 2.427-6.006Z" clip-rule="evenodd"/></svg>